<mxfile host="app.diagrams.net" modified="2024-04-21T19:21:35.573Z" agent="Mozilla/5.0 (Macintosh; Intel Mac OS X 10.15; rv:125.0) Gecko/20100101 Firefox/125.0" version="24.2.7" etag="5mQgvCMBk3VvCB25uCUU" type="github">
  <diagram name="Page-1" id="pa5e8LGYVjwd6vd9j4Zn">
    <mxGraphModel>
      <root>
        <mxCell id="0" />
        <mxCell id="1" parent="0" />
      </root>
    </mxGraphModel>
  </diagram>
</mxfile>
